<svg xmlns="http://www.w3.org/2000/svg" xmlns:xlink="http://www.w3.org/1999/xlink" version="1.1" x="0px" y="0px" viewBox="0 0 83.294 100" enable-background="new 0 0 83.294 100" xml:space="preserve"><g><path fill="#000000" d="M46.496,15.517l-0.087-0.357l-0.081-0.358c-0.055,0.012-0.352,0.09-0.781,0.414l0.442,0.587   C46.295,15.57,46.494,15.517,46.496,15.517z"></path><path fill="#000000" d="M43.027,22.087l-0.72-0.152c-0.096,0.457-0.187,0.942-0.27,1.46l0.726,0.117   C42.845,23.006,42.933,22.532,43.027,22.087z"></path><path fill="#000000" d="M43.797,19.31l-0.691-0.249c-0.159,0.441-0.31,0.921-0.449,1.426l0.708,0.195   C43.5,20.194,43.645,19.733,43.797,19.31z"></path><path fill="#000000" d="M45.063,16.785l-0.597-0.428c-0.275,0.382-0.536,0.825-0.777,1.314l0.661,0.323   C44.571,17.542,44.812,17.134,45.063,16.785z"></path><path fill="#000000" d="M42.917,34.452c-0.685,0.27-0.735,1.47-0.735,1.47c1.837-0.275,1.378,1.378,1.837,1.01   c0.459-0.367,1.93-1.01,0.093-2.205c-0.476-0.309-0.832-0.375-1.103-0.307c0.007-0.575,0.257-9.46,8.862-13.851l-0.084-0.164   c-8.95,4.567-8.962,13.953-8.961,14.047L42.917,34.452z"></path><path fill="#000000" d="M55.321,32.064c0-0.552,0-0.919-0.735-0.919c-0.525,0-5.272,5.864-7.939,9.211   C50.124,36.451,55.321,32.524,55.321,32.064z"></path><path fill="#000000" d="M60.465,15.067c-1.011,0.735-5.144,15.619-5.144,15.619c0.643-1.746,5.879-14.057,6.247-15.067   C61.936,14.608,61.476,14.332,60.465,15.067z"></path><path fill="#000000" d="M70.204,10.014c0.367-0.276,0.274-0.551-0.46-0.827c-0.735-0.275-7.992,4.961-7.992,4.961l0.274,0.367   C62.026,14.516,69.837,10.29,70.204,10.014z"></path><path fill="#000000" d="M80.493,0.459L79.851,0c0,0,0.367,0.919-0.552,1.47l-8.452,7.442l0.367,0.368   C71.214,9.279,80.4,1.562,80.493,0.459z"></path><path fill="#000000" d="M41.999,37.576l1.471,0.827c0,0,0.734-1.287-0.277-1.654C42.182,36.381,41.54,35.738,41.999,37.576z"></path><path fill="#000000" d="M58.167,57.145c-0.225-0.83-10.043-6.794-13.554-8.905c0.251-0.677,0.428-1.325,0.548-1.941   c1.663-0.407,4.696,2.312,11.261,3.588c6.614,1.287,18.466-1.837,16.721-6.89c-1.566-4.536-23.332,0.253-27.772,1.281   c0.005-0.763-0.078-1.448-0.202-2.058c0.312-0.396,0.832-1.054,1.477-1.864c-0.545,0.613-1.05,1.226-1.484,1.824   c-0.399-1.925-1.233-3.042-1.233-3.042s-0.881-0.944-2.113-1.151v-6.475l0.367,0.002l0.008-0.732l-0.375-0.005v-1.483l0.413,0.015   c0.019-0.503,0.042-0.989,0.071-1.457l-0.484-0.03v-1.477l0.593,0.053c0.045-0.505,0.096-0.988,0.151-1.448l-0.729-0.088   c-0.006,0.044-0.009,0.096-0.015,0.142V11.943h-0.735v12.938l-0.562,0.068c0.056,0.461,0.107,0.943,0.152,1.449l0.41-0.037v1.471   l-0.302,0.019c0.029,0.468,0.053,0.953,0.071,1.457l0.231-0.008v1.479l-0.192,0.003l0.007,0.732l0.185-0.001v4.835   c-0.217-0.071-0.651,0.203-1.194,0.401c-1.011,0.367-0.276,1.654-0.276,1.654l1.47-0.827c0-0.001,0-0.002,0.001-0.003v0.442   c-1.137,0.262-1.931,1.123-1.931,1.123s-0.834,1.117-1.233,3.042c-0.435-0.598-0.939-1.21-1.485-1.823   c0.645,0.809,1.165,1.466,1.478,1.863c-0.125,0.611-0.207,1.296-0.202,2.059c-4.44-1.028-26.206-5.817-27.772-1.281   c-1.746,5.053,10.106,8.177,16.72,6.89c6.564-1.276,9.598-3.996,11.261-3.588c0.12,0.616,0.297,1.264,0.548,1.941   c-3.511,2.111-13.329,8.076-13.554,8.905c-0.276,1.011,1.01-0.367,1.194,0.369c0.183,0.734,0.183,0.734,0.183,0.734l12.408-9.453   c0.088,0.211,0.168,0.418,0.271,0.634l1.38,1.01l1.012,0.406l-0.002,0.146l0.184-0.073l0.183,0.073l-0.002-0.146l1.012-0.406   l1.379-1.01c0.103-0.215,0.182-0.423,0.27-0.634l12.408,9.453c0,0,0,0,0.184-0.734C57.158,56.778,58.444,58.155,58.167,57.145z"></path><path fill="#000000" d="M64.484,76.432c0.121,0.166,0.206,0.282,0.206,0.282C64.626,76.595,64.557,76.506,64.484,76.432z"></path><path fill="#000000" d="M64.484,76.432c-0.304-0.416-0.856-1.174-0.987-1.372c-0.184-0.274-4.501-15.067-4.501-16.629   c0,0-1.654-1.102-1.287,0.093c0.368,1.194,5.42,14.607,5.236,18.282C62.945,76.806,63.838,75.77,64.484,76.432z"></path><path fill="#000000" d="M72.46,84.569l-1.889-1.149l-4.043-4.686c0,0-1.929-2.664-2.298-1.837c-0.365,0.827,6.341,5.604,6.891,8.36   C71.121,85.258,71.974,84.479,72.46,84.569z"></path><path fill="#000000" d="M72.46,84.569l0.226,0.137C72.63,84.621,72.549,84.586,72.46,84.569z"></path><path fill="#000000" d="M72.686,85.258c0,0-1.104-0.735-0.461,0.368c0.644,1.102,8.085,7.991,7.9,9.646c0,0,0.185,1.01-0.367,1.379   c0,0,1.103-0.185,0.92-1.471L72.686,85.258z"></path><path fill="#000000" d="M43.01,57.237c-0.552-0.919-0.183-2.021-0.183-2.021h-1.012l0.092,2.573   C42.55,57.788,43.56,58.155,43.01,57.237z"></path><path fill="#000000" d="M41.815,58.982l0.092,2.572c0.643,0,1.653,0.368,1.103-0.552c-0.552-0.918-0.183-2.021-0.183-2.021H41.815z   "></path><path fill="#000000" d="M42.827,62.749h-1.012l0.092,2.573c0.643,0,2.021,0.735,1.47-0.183   C42.827,64.219,42.827,62.749,42.827,62.749z"></path><path fill="#000000" d="M42.827,66.516h-1.012l0.092,2.573c0.643,0,2.021,0.735,1.47-0.183   C42.827,67.986,42.827,66.516,42.827,66.516z"></path><path fill="#000000" d="M42.827,70.375h-1.012l-0.092,4.501c0.645,0,2.206-1.193,1.654-2.112   C42.827,71.845,42.827,70.375,42.827,70.375z"></path><path fill="#000000" d="M41.631,75.521l-0.045,2.801l0.688-0.688c1.469-0.643,0.918-3.032,0.918-3.032L41.631,75.521z"></path><path fill="#000000" d="M51.094,91.23c-0.551-0.459-0.734-1.93,0.551-5.604c1.286-3.677,2.94-14.516,2.297-15.435   c-0.644-0.918-1.103,0.276-1.103,0.276c1.103,2.48-1.195,11.392-1.837,14.239c-0.643,2.85-2.39,6.892-2.205,6.524   C48.98,90.861,51.646,91.691,51.094,91.23z"></path><path fill="#000000" d="M49.715,91.598c0,0,5.879,5.879,5.605,7.165c-0.276,1.287-0.918,1.012-1.471,0.827   c-0.551-0.182,1.286,1.562,1.93-1.009l-5.055-6.708L49.715,91.598z"></path><path fill="#000000" d="M37.532,15.214c-0.43-0.323-0.727-0.401-0.782-0.413l-0.167,0.716c0.002,0,0.201,0.054,0.507,0.285   L37.532,15.214z"></path><path fill="#000000" d="M39.388,17.67c-0.24-0.491-0.501-0.933-0.776-1.314l-0.597,0.429c0.251,0.349,0.491,0.755,0.713,1.209   L39.388,17.67z"></path><path fill="#000000" d="M39.713,20.681l0.708-0.194c-0.138-0.503-0.289-0.983-0.449-1.427l-0.691,0.25   C39.436,19.735,39.581,20.196,39.713,20.681z"></path><path fill="#000000" d="M40.315,23.511l0.726-0.117c-0.083-0.518-0.174-1.003-0.271-1.46l-0.719,0.152   C40.145,22.531,40.233,23.005,40.315,23.511z"></path><path fill="#000000" d="M40.069,34.42c-0.27-0.067-0.627-0.001-1.103,0.308c-1.837,1.195-0.367,1.838,0.092,2.205   c0.46,0.368,0-1.286,1.838-1.01c0,0-0.05-1.199-0.735-1.47l0.091,0.001c0.001-0.094-0.011-9.48-8.962-14.047l-0.083,0.164   C39.807,24.958,40.062,33.84,40.069,34.42z"></path><path fill="#000000" d="M28.493,31.145c-0.734,0-0.734,0.367-0.734,0.919c0,0.46,5.197,4.386,8.674,8.292   C33.765,37.008,29.018,31.145,28.493,31.145z"></path><path fill="#000000" d="M27.758,30.686c0,0-4.134-14.883-5.145-15.619c-1.01-0.735-1.47-0.458-1.102,0.552   S27.116,28.94,27.758,30.686z"></path><path fill="#000000" d="M12.875,10.014c0.367,0.275,8.176,4.501,8.176,4.501l0.276-0.367c0,0-7.258-5.237-7.993-4.961   C12.599,9.463,12.508,9.738,12.875,10.014z"></path><path fill="#000000" d="M11.864,9.279l0.368-0.368L3.78,1.47C2.86,0.919,3.228,0,3.228,0L2.585,0.459   C2.677,1.562,11.864,9.279,11.864,9.279z"></path><path fill="#000000" d="M24.083,58.43c0,1.562-4.318,16.355-4.501,16.629c-0.131,0.198-0.683,0.954-0.988,1.372   c0.647-0.661,1.539,0.374,1.539,0.374c-0.183-3.675,4.869-17.088,5.237-18.282C25.737,57.328,24.083,58.43,24.083,58.43z"></path><path fill="#000000" d="M18.594,76.432c-0.072,0.073-0.142,0.162-0.207,0.282C18.387,76.714,18.473,76.598,18.594,76.432z"></path><path fill="#000000" d="M10.619,84.569c-0.088,0.017-0.169,0.052-0.226,0.137L10.619,84.569z"></path><path fill="#000000" d="M16.55,78.734l-4.042,4.686l-1.889,1.149c0.486-0.09,1.337,0.688,1.337,0.688   c0.552-2.756,7.258-7.533,6.891-8.36S16.55,78.734,16.55,78.734z"></path><path fill="#000000" d="M10.394,85.258l-7.993,9.923c-0.183,1.286,0.919,1.471,0.919,1.471c-0.551-0.369-0.367-1.379-0.367-1.379   c-0.185-1.655,7.258-8.545,7.901-9.646C11.497,84.522,10.394,85.258,10.394,85.258z"></path><path fill="#000000" d="M40.253,55.215c0,0,0.368,1.103-0.184,2.021c-0.55,0.918,0.459,0.551,1.103,0.551l0.091-2.573H40.253z"></path><path fill="#000000" d="M40.253,58.982c0,0,0.368,1.103-0.184,2.021c-0.55,0.919,0.459,0.552,1.103,0.552l0.091-2.572H40.253z"></path><path fill="#000000" d="M39.702,65.139c-0.552,0.918,0.826,0.183,1.47,0.183l0.091-2.573h-1.01   C40.253,62.749,40.253,64.219,39.702,65.139z"></path><path fill="#000000" d="M41.172,69.088l0.091-2.573h-1.01c0,0,0,1.471-0.551,2.39C39.15,69.824,40.528,69.088,41.172,69.088z"></path><path fill="#000000" d="M41.356,74.876l-0.093-4.501h-1.01c0,0,0,1.47-0.551,2.389C39.15,73.683,40.712,74.876,41.356,74.876z"></path><path fill="#000000" d="M39.886,74.601c0,0-0.551,2.39,0.918,3.032l0.688,0.688l-0.044-2.801L39.886,74.601z"></path><path fill="#000000" d="M29.228,68.721c-0.826,1.195,1.654,0.185,1.562,0.828l8.912-17.181c0,0,0.154-0.437,0.275-0.839   l0.092,1.114c0,0,0.459,1.287,0,1.562h1.287h0.367h1.287c-0.46-0.275,0-1.562,0-1.562l0.093-1.113   c0.121,0.402,0.274,0.838,0.274,0.838l8.911,17.181c-0.092-0.643,2.388,0.368,1.562-0.828C53.023,67.526,43.652,52,43.652,52   c-0.241-0.482-0.402-0.776-0.511-0.947l0.051-0.615l-1.653,1.075l-1.653-1.075l0.051,0.615c-0.109,0.171-0.27,0.465-0.512,0.948   C39.426,52,30.056,67.526,29.228,68.721z"></path><path fill="#000000" d="M30.239,70.467c0,0-0.459-1.194-1.102-0.276c-0.644,0.919,1.01,11.758,2.296,15.435   c1.286,3.675,1.103,5.146,0.551,5.604c-0.551,0.461,2.113-0.369,2.296,0c0.184,0.367-1.562-3.675-2.204-6.524   C31.433,81.858,29.137,72.947,30.239,70.467z"></path><path fill="#000000" d="M32.352,91.873l-5.052,6.708c0.644,2.57,2.48,0.827,1.929,1.009c-0.551,0.185-1.194,0.46-1.47-0.827   c-0.276-1.286,5.604-7.165,5.604-7.165L32.352,91.873z"></path><path fill="#000000" d="M23.298,55.215c5.323-2.631,8.427-5.194,10.57-6.695c-1.759,0.771-4.081,1.707-7.213,2.316   c-3.538,0.688-8.574,0.114-12.227-1.342C6.907,51.326,0.307,53.57,0.021,55.849C-0.654,61.237,15.311,59.165,23.298,55.215z"></path><path fill="#000000" d="M83.273,55.691c-0.285-2.279-6.885-4.523-14.407-6.355c-3.652,1.457-8.688,2.031-12.227,1.343   c-3.132-0.609-5.454-1.545-7.212-2.316c2.143,1.5,5.247,4.063,10.569,6.695C67.984,59.007,83.949,61.08,83.273,55.691z"></path></g></svg>